#!OML:ASF I:\AllaLogoMonkeySwing\Project 1\Capture day 1\Session 1\Subject1.ASF
:FULLY-SPECIFIED
:DEGREES
280
root 0.208426 17.2174 21.2045 -0.568373 192.145 2.77306
lowerback 8.39902 1.82389 -5.20772
upperback 0.444862 1.91585 0.677033
thorax -4.44868 1.04023 3.40269
lowerneck -12.6689 -1.04302 -2.95263
upperneck 23.4431 -2.30725 2.49929
head 9.54566 -1.40047 1.03205
rclavicle 4.88016e-014 1.11319e-014
rhumerus -27.0711 -5.98312 -80.7233
rradius 67.756
rwrist -8.45935
rhand -14.6747 -32.2466
rfingers 7.12502
rthumb 11.4784 -61.9123
lclavicle 4.88016e-014 1.11319e-014
lhumerus -57.7718 34.4648 58.5451
lradius 23.3881
lwrist -21.3797
lhand -1.73592 -11.3273
lfingers 7.12502
lthumb 23.9267 17.2019
rfemur -10.9296 -6.00997 19.7393
rtibia 34.8976
rfoot -21.5981 -11.1412
rtoes 15.101
lfemur -10.2268 1.4197 -19.2462
ltibia 32.4677
lfoot -24.7089 -2.00787
ltoes -24.6623
281
root 0.194964 17.2229 21.2223 -0.587501 191.818 2.44556
lowerback 8.21574 1.83608 -5.28952
upperback 0.433526 1.9404 0.749031
thorax -4.3655 1.05415 3.52508
lowerneck -12.7888 -0.981366 -3.07746
upperneck 23.6511 -2.19858 2.45457
head 9.63923 -1.37181 1.04924
rclavicle 1.09829e-014 5.1684e-015
rhumerus -27.5325 -5.8526 -81.5919
rradius 67.343
rwrist -8.12145
rhand -14.3636 -32.2441
rfingers 7.12502
rthumb 11.7785 -61.8929
lclavicle 1.09829e-014 5.1684e-015
lhumerus -57.1872 36.0963 58.2961
lradius 23.0095
lwrist -23.9585
lhand -0.65229 -9.57989
lfingers 7.12502
lthumb 24.9654 18.8092
rfemur -10.8576 -5.71155 19.3391
rtibia 34.7867
rfoot -21.4873 -11.1476
rtoes 15.02
lfemur -9.88847 1.37077 -19.6603
ltibia 31.9988
lfoot -24.4475 -1.70701
ltoes -25.0255
282
root 0.186254 17.2275 21.2399 -0.667999 191.498 2.19874
lowerback 8.10985 1.86308 -5.30948
upperback 0.390301 1.98586 0.820054
thorax -4.35919 1.07995 3.6068
lowerneck -12.7 -0.940203 -3.04816
upperneck 23.7806 -2.13265 2.28397
head 9.66392 -1.36722 0.99232
rclavicle -9.39258e-015 1.19271e-015
rhumerus -28.0757 -5.75628 -82.4169
rradius 66.3758
rwrist -7.72986
rhand -13.0207 -32.3664
rfingers 7.12502
rthumb 13.0732 -61.9367
lclavicle -9.39258e-015 1.19271e-015
lhumerus -56.123 36.8824 59.1688
lradius 23.2996
lwrist -24.2685
lhand 0.571372 -7.22129
lfingers 7.12502
lthumb 26.1375 20.9997
rfemur -10.7489 -5.36055 19.0387
rtibia 34.7037
rfoot -21.4332 -11.1906
rtoes 15.1041
lfemur -9.5301 1.40796 -19.9611
ltibia 31.5804
lfoot -24.2672 -1.56996
ltoes -24.783
283
root 0.177342 17.2305 21.2577 -0.790399 191.275 2.02897
lowerback 8.02681 1.79506 -5.18045
upperback 0.362298 1.91709 0.897548
thorax -4.33288 1.04517 3.62518
lowerneck -12.6056 -0.85074 -3.04445
upperneck 23.9405 -1.98836 2.07466
head 9.69605 -1.33519 0.935349
rclavicle -4.79568e-015 6.75868e-015
rhumerus -28.5535 -5.611 -83.2671
rradius 64.8587
rwrist -7.15476
rhand -11.7567 -32.4268
rfingers 7.12502
rthumb 14.2914 -61.915
lclavicle -4.79568e-015 6.75868e-015
lhumerus -54.5526 36.749 61.2253
lradius 24.194
lwrist -22.3944
lhand 1.11002 -7.08593
lfingers 7.12502
lthumb 26.6531 21.0577
rfemur -10.6235 -5.06857 18.8211
rtibia 34.6661
rfoot -21.3795 -11.2408
rtoes 15.1068
lfemur -9.19334 1.44127 -20.1671
ltibia 31.2124
lfoot -24.188 -1.58569
ltoes -24.3192
284
root 0.169585 17.2333 21.2774 -0.813082 191.014 1.79718
lowerback 7.87966 1.69892 -5.12661
upperback 0.319696 1.80713 0.962158
thorax -4.28372 0.99141 3.67851
lowerneck -12.668 -0.689557 -3.02194
upperneck 24.2796 -1.7544 1.8574
head 9.81951 -1.26524 0.881555
rclavicle 1.78161e-014 7.55382e-015
rhumerus -28.9764 -5.48044 -84.072
rradius 62.8474
rwrist -6.25748
rhand -11.3658 -32.5396
rfingers 7.12502
rthumb 14.6681 -62.0007
lclavicle 1.78161e-014 7.55382e-015
lhumerus -52.5962 35.7097 64.2492
lradius 25.5765
lwrist -19.211
lhand 0.586951 -6.47616
lfingers 7.12502
lthumb 26.1525 21.7426
rfemur -10.6315 -4.83712 18.5453
rtibia 34.6606
rfoot -21.3046 -11.2051
rtoes 15.1025
lfemur -8.98555 1.44697 -20.4284
ltibia 30.906
lfoot -24.1457 -1.58029
ltoes -24.0944
285
root 0.164957 17.2352 21.2982 -0.802166 190.74 1.51052
lowerback 7.77158 1.59246 -5.17093
upperback 0.273815 1.67122 1.01436
thorax -4.25977 0.927075 3.77615
lowerneck -12.7769 -0.489201 -2.89238
upperneck 24.6024 -1.4651 1.57284
head 9.94474 -1.16657 0.792675
rclavicle -2.16178e-015 9.34288e-015
rhumerus -29.3486 -5.47935 -84.7778
rradius 60.4116
rwrist -5.08438
rhand -11.1332 -32.4221
rfingers 7.12502
rthumb 14.8922 -61.8668
lclavicle -2.16178e-015 9.34288e-015
lhumerus -50.5085 34.1111 67.6245
lradius 27.2553
lwrist -15.5078
lhand -0.551444 -6.58063
lfingers 7.12502
lthumb 25.0621 21.795
rfemur -10.6974 -4.6419 18.2189
rtibia 34.6981
rfoot -21.3115 -11.1413
rtoes 15.0856
lfemur -8.82732 1.45275 -20.7223
ltibia 30.6557
lfoot -24.1681 -1.66435
ltoes -23.9136
286
root 0.162218 17.2335 21.3181 -0.810794 190.536 1.2486
lowerback 7.66485 1.48351 -5.2233
upperback 0.262176 1.53169 1.08919
thorax -4.2008 0.859138 3.90248
lowerneck -12.8259 -0.349456 -2.73404
upperneck 24.7602 -1.23914 1.24135
head 10.0023 -1.09408 0.675707
rclavicle -7.33018e-016 1.19271e-015
rhumerus -29.743 -5.67386 -85.3512
rradius 57.8828
rwrist -4.32513
rhand -10.964 -33.4739
rfingers 7.12502
rthumb 15.0552 -62.9065
lclavicle -7.33018e-016 1.19271e-015
lhumerus -48.4063 31.9083 71.1513
lradius 29.1871
lwrist -11.3705
lhand -1.97911 -7.44022
lfingers 7.12502
lthumb 23.6934 21.1195
rfemur -10.7556 -4.48096 17.9168
rtibia 34.7758
rfoot -21.375 -11.0816
rtoes 14.9739
lfemur -8.68972 1.48405 -20.9778
ltibia 30.4526
lfoot -24.2374 -1.81585
ltoes -23.8411
